# xmcd
#
# Track frame offsets:
#	150
#	19480
#	41543
#	57546
#	73407
#	99912
#	127425
#	179910
#
# Disc length: 2682 seconds
#
# Revision: 1
# Processed by: cddbd v1.5.2PL0 Copyright (c) Steve Scherf et al.
# Submitted via: audiograbber 1.83.01
#
DISCID=830a7808
DTITLE=NRPS - 72-12-31 Winterland Arena, San Francisco CA
DYEAR=1900
DGENRE=
TTITLE0=Long Black Veil
TTITLE1=Louisiana Lady
TTITLE2=School Days
TTITLE3=Dim Lights
TTITLE4=Take A Letter Maria
TTITLE5=Last Lonely Eagle
TTITLE6=Willie and The Hand Jive
TTITLE7=Glendale Train
EXTD=
EXTT0=
EXTT1=
EXTT2=
EXTT3=
EXTT4=
EXTT5=
EXTT6=
EXTT7=
PLAYORDER=
